<?xml version="1.0" encoding="UTF-8"?>
<svg version="1.1" xmlns="http://www.w3.org/2000/svg" width="820" height="272">
<path d="M0 0 C270.6 0 541.2 0 820 0 C820 89.76 820 179.52 820 272 C549.4 272 278.8 272 0 272 C0 182.24 0 92.48 0 0 Z " fill="#FDFDFC" transform="translate(0,0)"/>
<path d="M0 0 C0.89267578 0.00322266 1.78535156 0.00644531 2.70507812 0.00976562 C4.09823242 0.02233398 4.09823242 0.02233398 5.51953125 0.03515625 C6.45990234 0.03966797 7.40027344 0.04417969 8.36914062 0.04882812 C10.69016837 0.06060999 13.01106769 0.07706067 15.33203125 0.09765625 C15.3578125 0.83371094 15.38359375 1.56976563 15.41015625 2.328125 C15.80128075 10.04183788 15.80128075 10.04183788 20.33203125 16.09765625 C24.029285 17.94628313 28.29664567 17.57352719 32.33203125 17.09765625 C35.2662632 15.30118771 36.8040848 14.15354915 38.33203125 11.09765625 C38.66203125 7.46765625 38.99203125 3.83765625 39.33203125 0.09765625 C68.04203125 0.09765625 96.75203125 0.09765625 126.33203125 0.09765625 C127.32203125 5.54265625 127.32203125 5.54265625 128.33203125 11.09765625 C129.65083701 14.03499635 130.54170381 15.50491067 133.08203125 17.41015625 C137.37202727 18.72098837 140.98937199 18.70795592 145.08203125 16.84765625 C148.31446469 14.33354136 150.09334959 12.4022064 150.84375 8.30078125 C150.90175781 7.32625 150.95976562 6.35171875 151.01953125 5.34765625 C151.11814453 3.87039062 151.11814453 3.87039062 151.21875 2.36328125 C151.25613281 1.615625 151.29351562 0.86796875 151.33203125 0.09765625 C154.49837761 -0.0199509 157.66415199 -0.09005399 160.83203125 -0.15234375 C161.71890625 -0.18585937 162.60578125 -0.219375 163.51953125 -0.25390625 C169.70653468 -0.34489159 174.30043466 0.36782486 179.33203125 4.09765625 C184.87872523 9.63712715 184.98022025 16.14643271 185.00967407 23.60218811 C184.99995472 25.13779014 184.98971401 26.67338894 184.97900391 28.20898438 C184.98578656 29.84249341 184.99469332 31.4759948 185.0055542 33.10948181 C185.02827738 37.52901784 185.0195403 41.94796787 185.00365877 46.36751366 C184.99096345 51.00157579 185.00274995 55.63558913 185.0105896 60.26965332 C185.01967561 68.05046559 185.00772584 75.83104025 184.98388672 83.61181641 C184.95667741 92.59609473 184.96549232 101.57980564 184.99301875 110.56407022 C185.01573876 118.2900319 185.01889578 126.01582316 185.0058254 133.74180746 C184.99804676 138.35083912 184.99694546 142.95960443 185.01350784 147.56861877 C185.02799557 151.9027151 185.01785297 156.23608283 184.98903656 160.57010078 C184.98244862 162.15671646 184.98428411 163.7433939 184.99534988 165.32998466 C185.09527502 181.11758329 185.09527502 181.11758329 179.33203125 187.09765625 C173.62780438 191.63775518 169.56151215 192.22104486 162.4130249 192.23809814 C161.71696428 192.24106927 161.02090365 192.24404039 160.30375028 192.24710155 C157.97169371 192.25577207 155.63968859 192.2572954 153.30761719 192.25878906 C151.63529857 192.26341842 149.96298101 192.26844324 148.29066467 192.27383423 C143.74712126 192.28694936 139.20359261 192.29340153 134.66003323 192.29784489 C131.82032256 192.30077721 128.98061592 192.30488233 126.14090729 192.30934906 C117.25300641 192.32302202 108.36511475 192.33268951 99.47720408 192.33655095 C89.22329422 192.34103053 78.96951773 192.35857463 68.71564841 192.38755155 C60.78599391 192.40918113 52.85637689 192.41925592 44.9266932 192.42059207 C40.19244778 192.42163923 35.45832778 192.42752817 30.72411346 192.44541168 C26.26879775 192.4619143 21.81370143 192.46403725 17.35836601 192.45527267 C15.72658385 192.45450346 14.09478979 192.45882979 12.46303749 192.46873093 C-5.31253582 192.57023115 -5.31253582 192.57023115 -11.69140625 187.484375 C-12.13742188 186.92363281 -12.5834375 186.36289063 -13.04296875 185.78515625 C-13.50445312 185.23214844 -13.9659375 184.67914063 -14.44140625 184.109375 C-17.33735581 179.35964881 -17.91981412 174.75905068 -17.93539429 169.27981567 C-17.9399254 168.61879817 -17.94445651 167.95778066 -17.94912493 167.27673233 C-17.96172378 165.07520368 -17.96015154 162.87392385 -17.95849609 160.67236328 C-17.96448414 159.08841638 -17.97129032 157.5044724 -17.97885132 155.92053223 C-17.99648946 151.6270832 -18.00120575 147.33371394 -18.00248289 143.04023218 C-18.00390617 140.35561835 -18.0081791 137.67102468 -18.01347733 134.98641586 C-18.03196966 125.614466 -18.04014885 116.24257297 -18.03857422 106.87060547 C-18.03737271 98.14434821 -18.05847895 89.41833824 -18.09006155 80.69214356 C-18.11623864 73.19131089 -18.12694093 65.69055892 -18.1256634 58.18968093 C-18.12515423 53.71364699 -18.13081253 49.23783295 -18.1520195 44.76184464 C-18.17142637 40.55102226 -18.17150981 36.34062904 -18.15698624 32.12979126 C-18.15490014 30.5883102 -18.15958722 29.0468021 -18.17170715 27.50536728 C-18.29375314 10.90230179 -18.29375314 10.90230179 -12.18524742 4.55760384 C-8.23593758 1.06410592 -5.16271622 -0.03288354 0 0 Z " fill="#FCFCFB" transform="translate(58.66796875,44.90234375)"/>
<path d="M0 0 C4.88867501 2.49045708 6.07822644 4.13037741 9 9 C9 14.94 9 20.88 9 27 C37.38 27 65.76 27 95 27 C95 21.06 95 15.12 95 9 C98.06807937 3.88653438 99.69952794 2.11792367 105 0 C108.93938391 -0.64316472 110.57122117 -0.22296499 114.125 1.625 C117.64615265 4.53377828 120.59767005 7.37592152 121.31884766 12.07958984 C121.3923339 14.35766338 121.35033708 16.59812016 121.25 18.875 C121.23195312 19.65875 121.21390625 20.4425 121.1953125 21.25 C121.14855148 23.16720189 121.07682003 25.08376715 121 27 C121.64437012 26.97905273 122.28874023 26.95810547 122.95263672 26.93652344 C125.92659332 26.85239002 128.90029842 26.80103655 131.875 26.75 C132.88820312 26.71648438 133.90140625 26.68296875 134.9453125 26.6484375 C145.51645857 26.51290999 153.3140754 29.4379906 161.01953125 36.70703125 C166.59425851 43.16139989 169.11843477 50.40215379 169.14717102 58.81652832 C169.15084771 59.51370138 169.1545244 60.21087443 169.1583125 60.92917395 C169.16934725 63.27114943 169.17319289 65.61308054 169.17700195 67.95507812 C169.18326698 69.6322341 169.18991382 71.30938868 169.19691467 72.98654175 C169.21796051 78.50143466 169.22832056 84.01632785 169.23828125 89.53125 C169.24232923 91.4313712 169.24644616 93.33149226 169.25063133 95.23161316 C169.26968762 104.16276994 169.28391525 113.09391845 169.2922433 122.02509165 C169.30200447 132.32260106 169.32829284 142.61989487 169.36874419 152.91732836 C169.39895617 160.88267714 169.41371717 168.84796433 169.41702431 176.81336927 C169.41936987 181.56733228 169.42826517 186.32106508 169.45348549 191.07496643 C169.4768589 195.55330504 169.4809624 200.03126344 169.47072411 204.50964737 C169.47023081 206.14662571 169.47649002 207.78362334 169.49028015 209.42054367 C169.59547539 222.65634684 168.01355653 232.95326106 158.51171875 242.83203125 C151.35609312 249.00834887 144.02857593 251.1144443 134.76623535 251.15390015 C134.03624502 251.1582824 133.30625468 251.16266465 132.55414343 251.1671797 C130.1070565 251.18053824 127.66000557 251.18674001 125.21289062 251.19287109 C123.45839273 251.20077459 121.70389644 251.20904369 119.94940186 251.21765137 C114.18503364 251.24384992 108.42065827 251.25918006 102.65625 251.2734375 C100.66916398 251.27879868 98.682078 251.28417619 96.69499207 251.28956985 C88.42532225 251.31119826 80.15565437 251.32993243 71.88596344 251.34119225 C60.05097301 251.35741426 48.21631176 251.39055012 36.38144541 251.44759309 C28.05173447 251.48636602 19.7221113 251.50583382 11.39231253 251.51111281 C6.42198048 251.5147571 1.45199972 251.52667955 -3.51823425 251.55921555 C-8.20019155 251.58942454 -12.88158739 251.59556252 -17.56362152 251.58383179 C-19.27436676 251.5836121 -20.98513902 251.59182952 -22.69579315 251.60948563 C-34.77845298 251.72732189 -46.24964832 250.52768606 -55.47265625 241.80078125 C-61.71433783 234.44166307 -65.24451081 226.60987887 -65.26069641 216.92987061 C-65.26452196 216.24167937 -65.26834751 215.55348813 -65.27228898 214.84444261 C-65.28256314 212.55083855 -65.27863751 210.25748744 -65.2746582 207.96386719 C-65.27900788 206.31420155 -65.28419188 204.66453794 -65.29014587 203.01487732 C-65.3035223 198.54154053 -65.30411586 194.06828831 -65.30158257 189.59493542 C-65.30051155 185.85515104 -65.30539979 182.11538368 -65.310188 178.37560296 C-65.32127933 169.54775227 -65.32172324 160.71994413 -65.31567383 151.89208984 C-65.30963891 142.80009923 -65.32193366 133.70826357 -65.3432439 124.61629939 C-65.36089023 116.79866705 -65.36685632 108.98108388 -65.36360615 101.16343236 C-65.36179737 96.49958538 -65.36438862 91.83584883 -65.37832069 87.17201996 C-65.39094316 82.78231886 -65.38891334 78.3928581 -65.37590981 74.00316048 C-65.37355375 72.39802276 -65.37624366 70.7928679 -65.38453293 69.18774986 C-65.45131373 55.24358579 -64.02939337 45.27875341 -54.11328125 35.0546875 C-46.06766896 27.49908303 -38.69047544 26.55159353 -28 26.8125 C-26.93910156 26.82603516 -25.87820312 26.83957031 -24.78515625 26.85351562 C-22.18956313 26.88859121 -19.59505933 26.93774156 -17 27 C-17.04640625 25.77023438 -17.0928125 24.54046875 -17.140625 23.2734375 C-17.17816036 21.6406494 -17.21455862 20.00783489 -17.25 18.375 C-17.30027344 17.16263672 -17.30027344 17.16263672 -17.3515625 15.92578125 C-17.44103323 10.42333163 -16.6665666 7.36752786 -13 3 C-9.05487821 -0.28760149 -4.99255392 -0.88103893 0 0 Z M-45.3125 49.4375 C-48.46280356 54.22129429 -49.25074936 57.98169488 -49.26069641 63.69758606 C-49.26452196 64.35774914 -49.26834751 65.01791222 -49.27228898 65.69808024 C-49.28257984 67.90272448 -49.27863434 70.10710637 -49.2746582 72.31176758 C-49.27900692 73.89556621 -49.28419061 75.47936273 -49.29014587 77.06315613 C-49.30353178 81.36080452 -49.30411486 85.65836495 -49.30158257 89.95603013 C-49.30051231 93.54683345 -49.30539779 97.13761901 -49.310188 100.72841853 C-49.32128236 109.20282965 -49.32172137 117.67719646 -49.31567383 126.15161133 C-49.30963697 134.88519183 -49.32193787 143.6186111 -49.3432439 152.35216409 C-49.3608777 159.85722148 -49.36685834 167.36222764 -49.36360615 174.86730498 C-49.36179556 179.34666335 -49.36440689 183.82590679 -49.37832069 188.30524635 C-49.39092292 192.5201062 -49.38893237 196.73471548 -49.37590981 200.94957161 C-49.37354946 202.49265885 -49.37625924 204.03576385 -49.38453293 205.57883072 C-49.65955849 218.04189261 -49.65955849 218.04189261 -44.38671875 229.0234375 C-43.54560547 229.69246094 -43.54560547 229.69246094 -42.6875 230.375 C-42.13449219 230.83648437 -41.58148438 231.29796875 -41.01171875 231.7734375 C-36.14310965 234.74187101 -31.45321085 235.25144232 -25.84048462 235.26069641 C-25.14271514 235.26452196 -24.44494567 235.26834751 -23.72603166 235.27228898 C-21.4001217 235.28256465 -19.0744611 235.27863725 -16.74853516 235.2746582 C-15.07592034 235.27900771 -13.40330751 235.28419166 -11.73069763 235.29014587 C-7.19551394 235.30352197 -2.66041367 235.30411605 1.8747859 235.30158257 C5.66446528 235.30051184 9.45412785 235.3053989 13.24380362 235.310188 C22.18663711 235.32127855 31.12942859 235.32172324 40.07226562 235.31567383 C49.28926334 235.30963469 58.50610837 235.32194457 67.72308004 235.3432439 C75.64428948 235.36087391 83.56545039 235.36685901 91.48667872 235.36360615 C96.21417749 235.36179526 100.94156735 235.36441007 105.66904831 235.37832069 C110.11619657 235.39091705 114.56310729 235.38893786 119.010252 235.37590981 C120.63880558 235.37354835 122.26737597 235.37626325 123.89591026 235.38453293 C136.53235188 235.93808428 136.53235188 235.93808428 147.50142479 230.61888599 C151.96392837 225.56246243 153.24866378 221.90600649 153.27415466 215.23284912 C153.27939134 214.5531227 153.28462802 213.87339629 153.29002339 213.1730721 C153.30502061 210.89624628 153.30572847 208.61964525 153.30639648 206.34277344 C153.31401827 204.70986044 153.3224458 203.07695104 153.33161926 201.44404602 C153.35357175 197.00792988 153.36236439 192.57188267 153.36744571 188.13571835 C153.37108898 185.36300527 153.37732895 182.59031026 153.3844471 179.81760406 C153.40894607 170.14092719 153.42199406 160.46430395 153.42553711 150.78759766 C153.42917074 141.77391025 153.45905257 132.76056369 153.50094169 123.74698043 C153.53566099 116.00415182 153.55108585 108.26143605 153.55178314 100.51853013 C153.55257553 95.89597706 153.56129591 91.27377103 153.58978081 86.65129852 C153.615989 82.30091168 153.61815153 77.95115886 153.60212517 73.60072899 C153.60031274 72.00764011 153.60698288 70.41451455 153.62294388 68.82150459 C153.84769188 58.02684825 153.84769188 58.02684825 149.42973423 48.42396927 C145.19969797 44.21098932 140.72421803 42.81379955 134.84375 42.609375 C133.06207598 42.63557609 131.28059566 42.68271005 129.5 42.75 C128.5821875 42.76804688 127.664375 42.78609375 126.71875 42.8046875 C124.47803908 42.85136898 122.23960201 42.91681478 120 43 C119.98582031 43.72445312 119.97164062 44.44890625 119.95703125 45.1953125 C119.51874409 54.07951175 119.51874409 54.07951175 116.625 57.625 C113.47713903 60.47306468 111.82850697 60.93862911 107.625 61.25 C103.65108216 60.9759367 102.00244491 60.58543867 99 58 C96.11734194 52.74944424 95.77655623 49.21244983 95 43 C66.29 43 37.58 43 8 43 C7.67 46.63 7.34 50.26 7 54 C5.17154043 56.94912835 4.07055645 58.46472177 1 60 C-3.91996928 60.53118252 -7.77327597 60.75105553 -12.0625 58.125 C-15.02593377 54.87478232 -15.21135989 52.68900703 -15.5625 48.375 C-15.64628906 47.37210938 -15.73007813 46.36921875 -15.81640625 45.3359375 C-15.87699219 44.56507812 -15.93757813 43.79421875 -16 43 C-19.18718443 42.882708 -22.37380568 42.81239234 -25.5625 42.75 C-26.45775391 42.71648438 -27.35300781 42.68296875 -28.27539062 42.6484375 C-35.65020184 42.54038166 -40.0964323 43.9394827 -45.3125 49.4375 Z " fill="#1C3D64" transform="translate(90,2)"/>
<path d="M0 0 C19.14 0 38.28 0 58 0 C58 5.28 58 10.56 58 16 C44.8 16 31.6 16 18 16 C18 24.25 18 32.5 18 41 C30.21 41 42.42 41 55 41 C55 46.28 55 51.56 55 57 C42.79 57 30.58 57 18 57 C18 65.25 18 73.5 18 82 C31.53 82 45.06 82 59 82 C59 87.61 59 93.22 59 99 C39.53 99 20.06 99 0 99 C0 66.33 0 33.66 0 0 Z " fill="#1C3D64" transform="translate(300,69)"/>
<path d="M0 0 C7.12567997 5.7075759 10.37749349 12.59981771 12.5625 21.33984375 C12.5625 26.61984375 12.5625 31.89984375 12.5625 37.33984375 C-3.6075 37.33984375 -19.7775 37.33984375 -36.4375 37.33984375 C-33.19022664 47.96161355 -33.19022664 47.96161355 -25.4375 54.33984375 C-23.02500308 54.51587522 -20.60599105 54.60729343 -18.1875 54.65234375 C-16.88296875 54.68972656 -15.5784375 54.72710937 -14.234375 54.765625 C-9.88827392 54.27825358 -7.79519735 53.08196325 -4.4375 50.33984375 C-3.9425 49.34984375 -3.9425 49.34984375 -3.4375 48.33984375 C1.5125 48.33984375 6.4625 48.33984375 11.5625 48.33984375 C10.38618087 55.39775851 8.19771078 59.3642176 2.66796875 63.890625 C-6.4571965 69.99206685 -17.35485759 70.79276588 -28.0234375 68.875 C-37.54407159 66.05221551 -44.84938796 60.26196991 -49.5625 51.58984375 C-55.04208117 40.00505995 -54.83314912 27.34550152 -50.6953125 15.3515625 C-47.04770055 6.6176842 -41.87108565 0.62507898 -33.41796875 -3.69140625 C-22.22771273 -8.17581311 -9.83199433 -6.69647049 0 0 Z " fill="#1D3E64" transform="translate(492.4375,99.66015625)"/>
<path d="M0 0 C5.76141483 3.80470791 8.96415314 8.61264478 10.54051208 15.28935242 C11.0106201 18.06265091 11.12023487 20.62158948 11.11352539 23.43286133 C11.11344986 24.49358353 11.11337433 25.55430573 11.11329651 26.64717102 C11.10813522 27.7806749 11.10297394 28.91417877 11.09765625 30.08203125 C11.0962413 31.25134689 11.09482635 32.42066254 11.09336853 33.62541199 C11.08777793 37.35446751 11.07522709 41.08346267 11.0625 44.8125 C11.05748379 47.34309809 11.05292109 49.87369712 11.04882812 52.40429688 C11.03781156 58.60288779 11.02055332 64.80143366 11 71 C5.39 71 -0.22 71 -6 71 C-6.0093457 69.51677246 -6.01869141 68.03354492 -6.02832031 66.50537109 C-6.0682495 60.99237242 -6.1340176 55.47993004 -6.20751953 49.96728516 C-6.23571195 47.58324337 -6.25693503 45.19910842 -6.27099609 42.81494141 C-6.29244869 39.38395548 -6.33911364 35.95408776 -6.390625 32.5234375 C-6.39185364 31.46071625 -6.39308228 30.397995 -6.39434814 29.30307007 C-6.51367877 23.24786344 -6.90540881 19.58106806 -11 15 C-15.47064104 12.01957264 -19.75866179 12.39350229 -25 13 C-28.5940573 14.7024482 -30.39059854 15.74724291 -32.13241577 19.32792664 C-33.01910372 22.05883755 -33.27448301 24.20415433 -33.31884766 27.06567383 C-33.33871735 28.04631302 -33.35858704 29.02695221 -33.37905884 30.03730774 C-33.39638565 31.60632088 -33.39638565 31.60632088 -33.4140625 33.20703125 C-33.43342865 34.28756271 -33.4527948 35.36809418 -33.4727478 36.48136902 C-33.53242103 39.9249996 -33.57888041 43.36866383 -33.625 46.8125 C-33.66319101 49.15040502 -33.7022434 51.48829615 -33.7421875 53.82617188 C-33.83811271 59.55066805 -33.92218944 65.2752301 -34 71 C-39.61 71 -45.22 71 -51 71 C-51 47.24 -51 23.48 -51 -1 C-45.72 -1 -40.44 -1 -35 -1 C-34.67 1.97 -34.34 4.94 -34 8 C-33.195625 6.9275 -32.39125 5.855 -31.5625 4.75 C-23.3116481 -4.77615922 -10.91589662 -5.1960506 0 0 Z " fill="#1E3E64" transform="translate(569,97)"/>
<path d="M0 0 C37.95 0 75.9 0 115 0 C114.67 0.66 114.34 1.32 114 2 C112.07421875 2.5625 112.07421875 2.5625 109.6875 3 C106.48015264 3.59375687 103.71952774 4.14445868 101 6 C97.93389576 12.89357967 97.93389576 12.89357967 98 29 C69.62 29 41.24 29 12 29 C11.67 23.06 11.34 17.12 11 11 C7.67230182 5.28873435 7.67230182 5.28873435 2.75 3.125 C1.5125 2.75375 0.275 2.3825 -1 2 C-0.67 1.34 -0.34 0.68 0 0 Z " fill="#FBFBFA" transform="translate(87,0)"/>
<path d="M0 0 C6.6 0 13.2 0 20 0 C23.96 6.93 27.92 13.86 32 21 C35.49997503 16.63075925 35.49997503 16.63075925 38.359375 12.01171875 C38.71483398 11.37451904 39.07029297 10.73731934 39.43652344 10.08081055 C40.08669434 8.89612183 40.08669434 8.89612183 40.75 7.6875 C42.1525 5.150625 43.555 2.61375 45 0 C51.6 0 58.2 0 65 0 C61.4068217 6.8146485 57.31303773 13.22553754 53.10498047 19.66943359 C49.60469746 25.03732928 46.22520457 30.46135755 43 36 C43.70125 36.94359375 44.4025 37.8871875 45.125 38.859375 C50.35758283 45.92993263 55.45301121 53.03885661 60.2734375 60.3984375 C61.79353575 62.68890229 63.37003104 64.91224884 65 67.125 C67 70 67 70 67 72 C49.33288161 73.62542491 49.33288161 73.62542491 44.359375 70.16015625 C42.57752027 67.52484307 41.29920004 64.90205926 40 62 C38.71149982 59.98445453 37.39911911 57.9839621 36.0625 56 C33 51.26153846 33 51.26153846 33 49 C32.34 49 31.68 49 31 49 C30.72293213 49.57145752 30.44586426 50.14291504 30.16040039 50.73168945 C29.0068908 52.98653011 27.75379166 55.13192622 26.43359375 57.29296875 C25.7055957 58.4850293 25.7055957 58.4850293 24.96289062 59.70117188 C24.45951172 60.52166016 23.95613281 61.34214844 23.4375 62.1875 C22.93025391 63.01958984 22.42300781 63.85167969 21.90039062 64.70898438 C18.12862723 70.87137277 18.12862723 70.87137277 17 72 C15.58429877 72.08651611 14.164405 72.10704904 12.74609375 72.09765625 C11.89208984 72.09443359 11.03808594 72.09121094 10.15820312 72.08789062 C9.26037109 72.07951172 8.36253906 72.07113281 7.4375 72.0625 C6.53580078 72.05798828 5.63410156 72.05347656 4.70507812 72.04882812 C2.46998686 72.03700225 0.23502563 72.0205222 -2 72 C-0.42067858 67.38915185 2.04993034 63.70948103 4.7890625 59.73046875 C5.25234955 59.04946609 5.7156366 58.36846344 6.19296265 57.66682434 C7.66585234 55.50397073 9.14530839 53.34570429 10.625 51.1875 C11.62804171 49.71709525 12.63065072 48.24639524 13.6328125 46.77539062 C16.08354392 43.18015506 18.5401722 39.58901735 21 36 C17.97066653 29.77940689 17.97066653 29.77940689 14.4140625 23.8515625 C13.96071533 23.160625 13.50736816 22.4696875 13.0402832 21.7578125 C12.57323975 21.05398437 12.10619629 20.35015625 11.625 19.625 C10.65114603 18.13880497 9.67848367 16.65182842 8.70703125 15.1640625 C8.24248535 14.45282227 7.77793945 13.74158203 7.29931641 13.00878906 C0 1.72378805 0 1.72378805 0 0 Z " fill="#1D3E64" transform="translate(724,96)"/>
<path d="M0 0 C5.94 0 11.88 0 18 0 C24.44323341 16.17967501 30.23261518 32.57055223 36 49 C40.14452901 39.10860833 43.64544465 28.97139595 47.25 18.875 C47.90608021 17.0416059 48.56232877 15.20827203 49.21875 13.375 C50.81444327 8.91735929 52.40785109 4.45890783 54 0 C59.61 0 65.22 0 71 0 C68.64783748 8.26105012 65.75204103 16.25610733 62.7109375 24.28515625 C62.20173932 25.63602197 61.69276088 26.98697054 61.18399048 28.33799744 C60.12546072 31.14664011 59.06459458 33.95438509 58.00195312 36.76147461 C56.63812271 40.36464544 55.27982981 43.96987443 53.92317772 47.57575321 C52.87690895 50.35507616 51.82799979 53.13339656 50.77824783 55.91140556 C50.2758992 57.24163335 49.77432725 58.5721547 49.2735405 59.90297127 C48.57743568 61.75150359 47.8774413 63.59856982 47.17724609 65.44555664 C46.77992279 66.49683243 46.38259949 67.54810822 45.97323608 68.63124084 C45 71 45 71 44 72 C42.65732587 72.08631874 41.31025678 72.10706473 39.96484375 72.09765625 C39.15595703 72.09443359 38.34707031 72.09121094 37.51367188 72.08789062 C36.66353516 72.07951172 35.81339844 72.07113281 34.9375 72.0625 C34.08349609 72.05798828 33.22949219 72.05347656 32.34960938 72.04882812 C30.23304337 72.03700373 28.11651315 72.01906769 26 72 C25.56768066 70.83355957 25.13536133 69.66711914 24.68994141 68.46533203 C22.67026811 63.0178214 20.64779099 57.57135358 18.625 52.125 C18.26229004 51.14781006 17.89958008 50.17062012 17.52587891 49.16381836 C12.70364764 36.17718355 7.84351659 23.20970061 2.74462891 10.32861328 C2.37515137 9.3848584 2.00567383 8.44110352 1.625 7.46875 C1.30789063 6.66888672 0.99078125 5.86902344 0.6640625 5.04492188 C0 3 0 3 0 0 Z " fill="#1C3D64" transform="translate(366,96)"/>
<path d="M0 0 C5.61 0 11.22 0 17 0 C17 6.6 17 13.2 17 20 C22.61 20 28.22 20 34 20 C34 24.62 34 29.24 34 34 C28.39 34 22.78 34 17 34 C17.07401581 39.33934757 17.15685565 44.67702419 17.26245117 50.015625 C17.29568436 51.83129189 17.32372134 53.64706168 17.34643555 55.46289062 C17.38001141 58.07466442 17.43232762 60.68549654 17.48828125 63.296875 C17.49467117 64.10743347 17.5010611 64.91799194 17.50764465 65.75311279 C17.59361917 69.05623146 17.76715443 71.56324436 19.3359375 74.50585938 C21.9134779 76.82020023 24.2955626 76.61566585 27.6875 76.75 C29.770625 76.8325 31.85375 76.915 34 77 C34 81.95 34 86.9 34 92 C30.83186566 92.1360363 27.66966778 92.23459384 24.5 92.3125 C23.613125 92.35439453 22.72625 92.39628906 21.8125 92.43945312 C15.23607949 92.56034321 11.10285296 91.17899402 6 87 C0.01323013 80.85568356 -0.28992863 74.36345766 -0.1953125 66.2265625 C-0.1924826 65.3028183 -0.18965271 64.3790741 -0.18673706 63.42733765 C-0.17559179 60.49309024 -0.15049765 57.5591543 -0.125 54.625 C-0.11496289 52.62891068 -0.10583832 50.63281654 -0.09765625 48.63671875 C-0.07567097 43.75769351 -0.04118017 38.87889946 0 34 C-3.63 34 -7.26 34 -11 34 C-11 29.38 -11 24.76 -11 20 C-7.37 20 -3.74 20 0 20 C0 13.4 0 6.8 0 0 Z " fill="#1D3E64" transform="translate(600,76)"/>
<path d="M0 0 C1.407395 -0.01654042 2.81470665 -0.04380628 4.22167969 -0.08203125 C6.25686943 -0.13700408 8.29009407 -0.15870111 10.32592773 -0.17333984 C11.5438501 -0.19315918 12.76177246 -0.21297852 14.01660156 -0.23339844 C18.19521103 0.50774269 19.62175653 2.15590324 22.30639648 5.35009766 C22.80139648 5.84509766 22.80139648 5.84509766 23.30639648 6.35009766 C23.58955211 10.92692225 23.53827581 15.51556647 23.55639648 20.10009766 C23.57702148 21.38916016 23.59764648 22.67822266 23.61889648 24.00634766 C23.62663086 25.87033203 23.62663086 25.87033203 23.63452148 27.77197266 C23.64854004 29.48271973 23.64854004 29.48271973 23.6628418 31.22802734 C23.26334254 34.72720304 22.41268942 36.55281231 20.30639648 39.35009766 C15.54145541 42.52672504 10.10884275 41.72200762 4.53735352 41.72070312 C2.44521211 41.72506883 0.35519487 41.76137387 -1.73657227 41.79931641 C-3.07380467 41.80518665 -4.41104705 41.80915465 -5.74829102 41.81103516 C-6.95984863 41.81925293 -8.17140625 41.8274707 -9.41967773 41.8359375 C-13.29797321 41.26041118 -14.92870386 40.07313372 -17.69360352 37.35009766 C-19.79450712 33.14829044 -18.96147832 27.70597955 -18.98876953 23.08374023 C-19.00595357 21.05529736 -19.04983726 19.02849772 -19.09399414 17.00048828 C-19.1065625 15.0755957 -19.1065625 15.0755957 -19.11938477 13.11181641 C-19.13396729 11.93578857 -19.1485498 10.75976074 -19.16357422 9.5480957 C-18.59999981 5.7131548 -17.37946738 4.08908506 -14.69360352 1.35009766 C-10.40565023 -0.79387899 -4.75827429 0.04097664 0 0 Z " fill="#ED4034" transform="translate(195.693603515625,175.64990234375)"/>
<path d="M0 0 C0 5.94 0 11.88 0 18 C-1.69125 17.938125 -3.3825 17.87625 -5.125 17.8125 C-9.86919567 17.83077033 -13.06485355 18.12062455 -17 21 C-20.38300115 25.38875825 -22.09464903 28.86178743 -22.20532227 34.37963867 C-22.22526749 35.26032516 -22.24521271 36.14101166 -22.26576233 37.04838562 C-22.29083107 38.46882927 -22.29083107 38.46882927 -22.31640625 39.91796875 C-22.33718735 40.89034988 -22.35796844 41.86273102 -22.37937927 42.86457825 C-22.44478748 45.97214665 -22.50371929 49.07979985 -22.5625 52.1875 C-22.60569351 54.29362858 -22.64930807 56.39974856 -22.69335938 58.50585938 C-22.80045999 63.67048591 -22.90175219 68.83519778 -23 74 C-28.61 74 -34.22 74 -40 74 C-40 50.24 -40 26.48 -40 2 C-34.39 2 -28.78 2 -23 2 C-22.67 4.64 -22.34 7.28 -22 10 C-21.29875 9.071875 -20.5975 8.14375 -19.875 7.1875 C-14.40285464 0.61472484 -8.11742317 0 0 0 Z " fill="#1E4066" transform="translate(686,94)"/>
<path d="M0 0 C5.61 0 11.22 0 17 0 C17 23.76 17 47.52 17 72 C11.39 72 5.78 72 0 72 C0 48.24 0 24.48 0 0 Z " fill="#214369" transform="translate(696,96)"/>
<path d="M0 0 C3.86821154 2.03720309 6.18741504 4.2571708 7.83203125 8.27734375 C8.32703125 12.23734375 8.32703125 12.23734375 8.83203125 16.27734375 C-2.05796875 16.27734375 -12.94796875 16.27734375 -24.16796875 16.27734375 C-21.85040118 5.8482897 -21.85040118 5.8482897 -17.16796875 1.27734375 C-12.12640458 -1.85079095 -5.5572595 -1.85241983 0 0 Z " fill="#FAFBFA" transform="translate(480.16796875,108.72265625)"/>
<path d="M0 0 C3.63332579 2.9727211 4.52535989 4.52775915 5.125 9.125 C4.64541545 13.12153796 3.28260567 15.15459308 0.75 18.25 C-2.45785018 20.60242347 -5.34649252 20.7184209 -9.25 20.25 C-12.31471302 18.59976991 -14.55778907 17.193924 -16.625 14.375 C-17.94601084 9.88356315 -17.73383625 7.14855304 -15.5 3 C-11.07554167 -2.40767129 -6.28755102 -3.38560439 0 0 Z " fill="#1D3D64" transform="translate(148.25,137.75)"/>
<path d="M0 0 C4.00714286 3.27857143 4.00714286 3.27857143 4.75 6.25 C4.67403094 11.03605069 4.44269933 13.26342823 1.6875 17.1875 C-1.96163289 19.74965714 -4.79312146 20.70353754 -9.25 20.25 C-12.46634616 18.64182692 -14.49987382 17.27289934 -16.625 14.375 C-17.94601084 9.88356315 -17.73383625 7.14855304 -15.5 3 C-11.07554167 -2.40767129 -6.28755102 -3.38560439 0 0 Z " fill="#1D3E64" transform="translate(92.25,137.75)"/>
<path d="M0 0 C4.1240462 1.78083813 6.32481141 3.81202852 8 8 C8.41261768 12.73070973 7.55471929 15.33433685 4.5 19 C1.18676713 21.34720594 -1.87831235 21.71588365 -5.87890625 21.5 C-9.30530659 20.69230342 -10.92287849 18.72622198 -13 16 C-14.57455739 12.85088521 -14.34799118 10.47991184 -14 7 C-10.36664874 0.89922363 -6.93956752 -0.47047915 0 0 Z " fill="#1D3D64" transform="translate(89,184)"/>
<path d="M0 0 C3.96798604 2.13660787 6.37587197 3.78188549 8 8 C8.21443385 11.12303656 7.87310734 13.99385827 7 17 C4.00009243 20.07682827 1.48300252 21.86817755 -2.8125 22.25 C-6.41995442 21.9670624 -8.12754237 21.15434322 -11 19 C-13.81725233 14.7741215 -13.79958384 10.96375312 -13 6 C-9.14049112 1.02326486 -6.24979557 -0.60094188 0 0 Z " fill="#1C3D64" transform="translate(201,136)"/>
<path d="M0 0 C3.4001699 2.06966864 5.91812696 4.10525706 7 8 C6.92502542 12.72339884 6.6253025 15.03178968 4.0625 19 C-0.2817642 21.8370705 -3.95227157 22.0112034 -9 21 C-12.07204549 18.99376621 -13.45581618 17.57748525 -14.65625 14.09765625 C-15.45599176 10.09125763 -15.17678353 8.34093966 -13.25 4.625 C-9.33644444 0.05918518 -5.8476869 -0.9365436 0 0 Z " fill="#1C3C63" transform="translate(146,184)"/>
<path d="M0 0 C2.75569447 2.18159145 4.43588747 3.87177494 6 7 C6.2262475 12.0069555 5.69507747 15.16929766 2.4375 19.0625 C-2.03699068 21.58448566 -3.93088294 21.72415958 -9 21 C-12.39890142 18.93110348 -14.88937011 16.88720463 -16 13 C-15.80743088 7.70434916 -14.69046589 4.80229819 -11 1 C-7.52736727 -0.73631636 -3.78806987 -0.60190402 0 0 Z " fill="#1C3C63" transform="translate(203,89)"/>
<path d="M0 0 C3.02508145 1.73602105 5.41790069 3.83580137 7 7 C7.2262475 12.0069555 6.69507747 15.16929766 3.4375 19.0625 C-1.03699068 21.58448566 -2.93088294 21.72415958 -8 21 C-11.4431146 18.90419111 -13.7468218 16.8734599 -15 13 C-15.45972376 9.97895814 -15.60025379 7.96174492 -13.94921875 5.31640625 C-9.87727285 0.30755244 -6.41405481 -1.09479229 0 0 Z " fill="#1C3C63" transform="translate(146,89)"/>
<path d="M0 0 C3.39890142 2.06889652 5.88937011 4.11279537 7 8 C6.80743088 13.29565084 5.69046589 16.19770181 2 20 C-1.24430347 21.62215174 -4.49378642 21.55292793 -8 21 C-11.41885274 19.07301027 -13.4095503 17.63879916 -14.765625 13.875 C-15.36623979 10.58274118 -15.60229224 8.13165066 -14 5.12109375 C-9.96212151 0.13383312 -6.25395064 -0.87627331 0 0 Z " fill="#1C3D64" transform="translate(90,89)"/>
<path d="M0 0 C3.70219508 2.54525912 4.7681855 4.18864925 6 8.5 C6 12.48112565 5.5290797 13.96510436 3 17 C-0.03489564 19.5290797 -1.51887435 20 -5.5 20 C-9.81135075 18.7681855 -11.45474088 17.70219508 -14 14 C-15.05631455 9.2594664 -14.66309569 6.04811899 -12.0625 1.9375 C-7.95188101 -0.66309569 -4.7405336 -1.05631455 0 0 Z " fill="#1E3F65" transform="translate(709,67)"/>
<path d="M0 0 C5.61 0 11.22 0 17 0 C17 23.76 17 47.52 17 72 C11.39 72 5.78 72 0 72 C0 48.24 0 24.48 0 0 Z M2 1 C2 23.77 2 46.54 2 70 C6.62 70 11.24 70 16 70 C16 47.23 16 24.46 16 1 C11.38 1 6.76 1 2 1 Z " fill="#192E55" transform="translate(696,96)"/>
<path d="M0 0 C5.61 0 11.22 0 17 0 C17 0.33 17 0.66 17 1 C12.05 1 7.1 1 2 1 C2 23.77 2 46.54 2 70 C6.62 70 11.24 70 16 70 C16 55.81 16 41.62 16 27 C16.33 27 16.66 27 17 27 C17 41.85 17 56.7 17 72 C11.39 72 5.78 72 0 72 C0 48.24 0 24.48 0 0 Z " fill="#0B2651" transform="translate(646,96)"/>
<path d="M0 0 C0.33 0 0.66 0 1 0 C1 16.5 1 33 1 50 C-4.61 50 -10.22 50 -16 50 C-15.67 49.34 -15.34 48.68 -15 48 C-10.38 48 -5.76 48 -1 48 C-1.00785522 45.97879028 -1.00785522 45.97879028 -1.01586914 43.91674805 C-1.03395024 38.924079 -1.04544344 33.93141287 -1.05493164 28.9387207 C-1.05996472 26.77660638 -1.06679169 24.61449547 -1.07543945 22.45239258 C-1.08754979 19.34715941 -1.09323852 16.2419712 -1.09765625 13.13671875 C-1.10281754 12.16788254 -1.10797882 11.19904633 -1.11329651 10.20085144 C-1.11340981 8.84979057 -1.11340981 8.84979057 -1.11352539 7.47143555 C-1.115746 6.67867722 -1.11796661 5.88591888 -1.12025452 5.06913757 C-1 3 -1 3 0 0 Z " fill="#374B6E" transform="translate(534,118)"/>
<path d="M0 0 C3.63 0 7.26 0 11 0 C11 0.33 11 0.66 11 1 C8.03 1 5.06 1 2 1 C2 4.63 2 8.26 2 12 C4.1965625 11.9690625 4.1965625 11.9690625 6.4375 11.9375 C7.95832518 11.91607993 9.48071962 11.92820036 11 12 C12 13 12 13 12.11352539 16.78540039 C12.11336622 18.47282729 12.10766917 20.16025905 12.09765625 21.84765625 C12.0962413 22.7340831 12.09482635 23.62050995 12.09336853 24.53379822 C12.08775215 27.37673254 12.07519691 30.21958931 12.0625 33.0625 C12.05748711 34.98502491 12.05292384 36.90755104 12.04882812 38.83007812 C12.03777741 43.55341549 12.02050183 48.27669458 12 53 C11.67 53 11.34 53 11 53 C11 40.13 11 27.26 11 14 C7.37 14 3.74 14 0 14 C0 9.38 0 4.76 0 0 Z " fill="#0D204A" transform="translate(589,96)"/>
<path d="M0 0 C2 2 2 2 2.265625 5.1875 C2.26046875 6.445625 2.2553125 7.70375 2.25 9 C2.25515625 10.258125 2.2603125 11.51625 2.265625 12.8125 C2 16 2 16 0 18 C-1.12589491 14.62231526 -1.13294275 11.99187928 -1.125 8.4375 C-1.12757813 7.28121094 -1.13015625 6.12492188 -1.1328125 4.93359375 C-1 2 -1 2 0 0 Z " fill="#2B4569" transform="translate(440,123)"/>
<path d="M0 0 C0 0.33 0 0.66 0 1 C-1.65 1 -3.3 1 -5 1 C-5.268125 1.598125 -5.53625 2.19625 -5.8125 2.8125 C-7 5 -7 5 -8.5625 6.4375 C-10.45263121 8.49199044 -10.6324247 10.27994277 -11 13 C-11.33 13 -11.66 13 -12 13 C-12.60356653 5.87791495 -12.60356653 5.87791495 -9.9375 2 C-6.35342568 -0.44022082 -4.25018379 -0.41668469 0 0 Z " fill="#122952" transform="translate(707,67)"/>
<path d="M0 0 C0.66 0.99 1.32 1.98 2 3 C1.01 3.33 0.02 3.66 -1 4 C-1 6.64 -1 9.28 -1 12 C-3 10 -3 10 -3.3125 7.125 C-2.9736202 3.73620199 -2.27183419 2.46115371 0 0 Z " fill="#1A365D" transform="translate(78,92)"/>
<path d="M0 0 C1.485 0.99 1.485 0.99 3 2 C2.74438677 4.3431213 2.40729228 6.67843403 2 9 C1.01 9.495 1.01 9.495 0 10 C0 6.7 0 3.4 0 0 Z " fill="#CBD3DB" transform="translate(534,96)"/>
</svg>
